<?xml version="1.0" encoding="iso-8859-1"?>
<!-- Uploaded to: SVG Repo, www.svgrepo.com, Generator: SVG Repo Mixer Tools -->
<svg version="1.1" id="Layer_1" xmlns="http://www.w3.org/2000/svg" xmlns:xlink="http://www.w3.org/1999/xlink" 
	 viewBox="0 0 512 512" xml:space="preserve">
<path style="fill:#333333;" d="M368,512H144c-17.6,0-32-14.4-32-32V32c0-17.6,14.4-32,32-32h224c17.6,0,32,14.4,32,32v448
	C400,497.6,385.6,512,368,512z"/>
<rect x="135.456" y="50.672" style="fill:#FFFFFF;" width="241.28" height="372"/>
<g>
	<path style="fill:#D6D6D6;" d="M256.176,489.456c-12.496,0-22.656-10.176-22.656-22.672s10.16-22.672,22.656-22.672
		s22.672,10.176,22.672,22.672S268.672,489.456,256.176,489.456z M256.176,452.112c-8.08,0-14.656,6.576-14.656,14.672
		s6.576,14.672,14.656,14.672c8.096,0,14.672-6.576,14.672-14.672S264.272,452.112,256.176,452.112z"/>
	<circle style="fill:#D6D6D6;" cx="256.16" cy="25.328" r="7.792"/>
	<circle style="fill:#D6D6D6;" cx="312.816" cy="25.328" r="7.792"/>
	<circle style="fill:#D6D6D6;" cx="337.44" cy="25.328" r="7.792"/>
</g>
<rect x="248" y="237.264" style="fill:#333333;" width="16" height="106.08"/>
<g>
	<polygon style="fill:#0BA4E0;" points="299.472,238.864 256,176.464 212.528,238.864 	"/>
	<polygon style="fill:#0BA4E0;" points="330.176,183.584 314.176,183.584 314.176,145.888 197.824,145.888 197.824,183.584 
		181.824,183.584 181.824,129.888 330.176,129.888 	"/>
</g>
</svg>